<?xml version="1.0" standalone="no"?>
<!DOCTYPE svg PUBLIC "-//W3C//DTD SVG 20010904//EN"
 "http://www.w3.org/TR/2001/REC-SVG-20010904/DTD/svg10.dtd">
<svg version="1.0" xmlns="http://www.w3.org/2000/svg"
 width="1024.000000pt" height="1024.000000pt" viewBox="0 0 1024.000000 1024.000000"
 preserveAspectRatio="xMidYMid meet">

<g transform="translate(0.000000,1024.000000) scale(0.100000,-0.100000)"
fill="#000000" stroke="none">
<path d="M0 5120 l0 -5120 5120 0 5120 0 0 5120 0 5120 -5120 0 -5120 0 0
-5120z m4756 3020 c21 -16 233 -222 470 -457 502 -498 464 -442 464 -670 l0
-143 -135 0 -135 0 0 80 0 79 -357 3 c-346 3 -359 4 -399 25 -49 26 -107 89
-131 140 -15 33 -18 81 -21 371 l-3 332 -840 0 c-732 0 -844 -2 -877 -15 -50
-21 -477 -445 -503 -500 -18 -38 -19 -92 -19 -1420 0 -1061 3 -1384 12 -1393
9 -9 244 -12 995 -12 l983 0 0 -135 0 -135 -1012 2 -1013 3 -52 24 c-61 27
-126 93 -156 159 l-22 47 -3 1414 c-1 936 1 1434 8 1470 21 116 45 148 314
419 138 140 264 263 280 275 16 11 54 31 85 43 l56 24 986 0 986 0 39 -30z
m2782 -1506 c319 -65 564 -297 654 -620 22 -78 22 -90 26 -807 3 -793 1 -828
-53 -974 -81 -216 -263 -399 -475 -480 -47 -18 -91 -32 -97 -33 -10 0 -13 -65
-13 -290 0 -319 -2 -335 -59 -383 -43 -36 -87 -43 -139 -22 -35 14 -97 78
-337 341 l-295 323 -783 3 c-761 4 -784 4 -857 25 -162 46 -290 122 -400 240
-80 86 -127 159 -169 264 -59 147 -61 180 -61 956 0 467 4 728 11 776 43 274
239 523 499 632 155 65 120 64 1353 64 981 1 1127 -1 1195 -15z m-4267 -2672
c14 -16 36 -62 49 -103 148 -491 512 -876 965 -1022 212 -68 323 -77 968 -77
502 0 530 1 507 17 -14 9 -94 71 -179 136 -164 128 -189 159 -175 220 21 98
117 137 200 81 21 -15 136 -101 254 -192 394 -303 390 -299 390 -382 0 -62
-24 -96 -121 -171 -429 -332 -527 -407 -546 -417 -90 -49 -201 45 -173 147 12
46 30 63 204 195 l139 106 -519 0 c-285 0 -568 5 -628 10 -563 54 -998 309
-1302 765 -112 169 -221 416 -249 567 -24 130 130 216 216 120z"/>
<path d="M4771 7544 c-2 -158 1 -213 11 -227 12 -16 32 -17 226 -15 l212 3
-224 224 -224 223 -1 -208z"/>
<path d="M5205 6375 c-225 -49 -400 -216 -450 -426 -21 -92 -22 -1439 0 -1541
43 -205 203 -371 420 -435 55 -16 135 -18 872 -23 804 -5 812 -5 840 -26 15
-12 118 -120 228 -242 110 -121 203 -221 208 -221 4 -1 7 96 7 214 l0 215 28
30 c23 25 40 32 107 44 44 8 103 23 131 33 121 47 245 160 303 278 62 125 62
132 59 929 -3 716 -3 721 -25 779 -72 189 -208 318 -403 383 -52 18 -118 19
-1160 21 -889 1 -1117 -1 -1165 -12z m542 -535 c41 -81 494 -1343 491 -1369
-3 -22 -10 -27 -48 -34 -52 -9 -160 -1 -174 13 -6 6 -38 86 -72 178 l-61 167
-258 3 c-169 1 -262 -1 -270 -8 -7 -6 -36 -81 -65 -168 -29 -86 -57 -162 -62
-168 -11 -15 -112 -24 -167 -16 -24 4 -48 14 -54 23 -7 12 43 163 201 605 249
696 267 745 287 783 17 34 36 39 149 37 l80 -1 23 -45z m1753 -100 c19 -19 20
-33 20 -265 l0 -245 82 0 c105 0 118 -10 118 -93 0 -87 -12 -97 -117 -97 l-83
0 0 -314 c0 -348 0 -345 -63 -347 -72 -2 -113 4 -130 18 -16 15 -17 57 -15
677 l3 660 25 13 c14 7 51 13 83 13 44 0 62 -5 77 -20z m-392 -106 c26 -18 28
-63 12 -205 -34 -297 -193 -558 -431 -712 -148 -95 -177 -98 -226 -23 -18 26
-33 59 -33 72 0 24 8 31 109 95 123 78 231 199 301 338 31 63 70 194 70 238
l0 23 -212 0 c-251 0 -248 -1 -248 93 0 102 -16 97 334 97 257 0 305 -2 324
-16z"/>
<path d="M5514 5308 l-99 -297 197 -3 c109 -2 198 -1 198 2 0 3 -44 138 -98
300 l-99 294 -99 -296z"/>
</g>
</svg>
